<svg width="525" height="431" viewBox="0 0 525 431" fill="none" xmlns="http://www.w3.org/2000/svg">
<g clip-path="url(#clip0_7_93)">
<path d="M129.585 393.275L130.653 415.81L130.653 415.811C130.833 419.619 129.495 423.344 126.932 426.164C124.37 428.985 120.793 430.672 116.989 430.852L116.523 430.874L114.775 393.978L129.585 393.275Z" fill="#2F2E41"/>
<path d="M449.595 355.193C438.875 376.138 425.278 396.394 408.074 414.728C407.692 415.142 407.306 415.545 406.916 415.956L366.155 396.636C366.404 396.221 366.677 395.756 366.971 395.247C384.481 365.253 490.178 182.288 486.838 140.848C487.227 144.266 499.756 257.293 449.595 355.193Z" fill="#E6E6E6"/>
<path d="M415.938 418.455C415.367 418.78 414.782 419.098 414.193 419.405L383.615 404.912C384.042 404.608 384.54 404.249 385.113 403.845C394.481 397.111 422.338 376.907 449.595 355.193C478.888 331.858 507.494 306.786 511.742 294.818C510.879 297.563 484.068 380.983 415.938 418.455Z" fill="#E6E6E6"/>
<path d="M50.8659 429.974C76.9287 429.974 98.0569 408.821 98.0569 382.728C98.0569 356.634 76.9287 335.481 50.8659 335.481C24.803 335.481 3.67485 356.634 3.67485 382.728C3.67485 408.821 24.803 429.974 50.8659 429.974Z" fill="#FF006E"/>
<path d="M69.769 362.901H31.9627C30.2921 362.903 28.6905 363.568 27.5093 364.751C26.328 365.934 25.6635 367.537 25.6617 369.21V396.246C25.6635 397.918 26.328 399.522 27.5093 400.705C28.6905 401.887 30.2921 402.553 31.9627 402.554H69.769C71.4396 402.553 73.0413 401.887 74.2225 400.705C75.4038 399.522 76.0683 397.918 76.0701 396.246V369.21C76.0683 367.537 75.4038 365.934 74.2225 364.751C73.0412 363.568 71.4396 362.903 69.769 362.901ZM69.769 366.506C69.9947 366.507 70.2194 366.536 70.4378 366.593L50.8702 382.221L31.4171 366.562C31.5966 366.525 31.7794 366.506 31.9627 366.506H69.769ZM69.769 398.95H31.9627C31.2467 398.949 30.5604 398.664 30.0541 398.157C29.5478 397.65 29.2631 396.963 29.2623 396.246V369.452L49.7378 385.935C50.0567 386.192 50.4533 386.332 50.8624 386.333C51.2716 386.333 51.6687 386.195 51.9886 385.939L72.4695 369.582V396.246C72.4687 396.963 72.1839 397.65 71.6777 398.157C71.1714 398.664 70.485 398.949 69.769 398.95Z" fill="white"/>
<path d="M232.987 314.516L243.546 314.603C244.614 314.611 245.672 314.387 246.645 313.944C247.618 313.502 248.482 312.852 249.179 312.041C249.875 311.23 250.386 310.276 250.676 309.247C250.967 308.217 251.029 307.137 250.86 306.08C250.677 304.944 250.231 303.866 249.556 302.933C248.882 302.001 247.998 301.24 246.976 300.712C245.954 300.184 244.823 299.904 243.673 299.893C242.523 299.883 241.387 300.143 240.356 300.652L230.398 305.572L196.34 313.176L181.749 298.24L173.368 312.06L193.057 327.29L232.987 314.516Z" fill="#FFB8B8"/>
<path d="M231.008 423.737L218.567 426.132C210.07 399.315 200.863 373.919 200.864 354.276C188.838 367.676 173.926 375.342 156.365 377.749L158.279 348.049L172.634 340.384L194.603 330.232C196.526 329.344 198.601 328.83 200.717 328.718C204.83 328.501 208.877 329.816 212.081 332.408C215.284 335 217.416 338.687 218.066 342.758L231.008 423.737Z" fill="#2F2E41"/>
<path d="M171.437 374.156L166.479 377.929C164.347 379.552 161.828 380.587 159.173 380.934C156.517 381.281 153.817 380.926 151.341 379.905C137.139 369.247 127.05 372.391 117.906 388.478C106.937 376.084 104.231 358.184 114.02 339.665L168.327 340.863L179.332 337.51L171.437 374.156Z" fill="#2F2E41"/>
<path d="M153.351 429.659C150.239 430.618 146.89 430.449 143.889 429.184C140.889 427.918 138.429 425.636 136.941 422.737C132.06 418.433 127.942 412.271 124.37 404.778C121.808 399.281 119.607 393.623 117.783 387.838C115.312 380.196 119.444 371.847 127.136 369.561C127.364 369.493 127.596 369.429 127.83 369.368C138.098 366.729 148.642 372.658 152.152 382.673L162.358 411.794C162.96 413.514 163.219 415.336 163.119 417.157C163.018 418.977 162.56 420.76 161.772 422.403C160.983 424.046 159.879 425.518 158.522 426.734C157.165 427.95 155.582 428.886 153.864 429.49C153.694 429.55 153.523 429.606 153.351 429.659Z" fill="#2F2E41"/>
<path opacity="0.2" d="M122.633 401.462C122.633 401.462 134.595 414.875 136.987 422.54Z" fill="black"/>
<path d="M76.2394 338.16L72.236 347.942C71.8309 348.932 71.6464 349.999 71.6952 351.067C71.7441 352.136 72.0252 353.181 72.5189 354.13C73.0126 355.078 73.7071 355.908 74.5539 356.56C75.4006 357.212 76.3794 357.672 77.4218 357.907C78.5437 358.159 79.7091 358.145 80.8244 357.864C81.9396 357.584 82.9735 357.045 83.8428 356.291C84.7121 355.538 85.3926 354.59 85.8294 353.525C86.2663 352.46 86.4473 351.307 86.358 350.16L85.4954 339.076L91.0968 304.593L110.368 296.579L100.665 283.655L79.2274 296.298L76.2394 338.16Z" fill="#FFB8B8"/>
<path d="M171.916 339.665C158.168 362.785 130.761 371.738 107.288 353.634C111.417 340.05 124.748 302.509 116.136 301.072C97.8494 308.749 97.8228 290.723 94.4024 281.701L136.03 266.372L158.518 272.599L163.128 274.237C166.128 275.303 168.731 277.263 170.585 279.854C172.439 282.444 173.456 285.541 173.5 288.728C164.053 302.392 157.06 316.967 171.916 339.665Z" fill="#FF006E"/>
<path d="M177.179 320.983L160.672 307.33L166.174 275.474L188.663 299.426L177.179 320.983Z" fill="#FF006E"/>
<path d="M451.09 102.138H448.73V37.443C448.73 27.5125 444.79 17.9887 437.776 10.9668C430.763 3.94488 421.25 0 411.331 0H274.426C264.507 0 254.995 3.94488 247.981 10.9668C240.967 17.9887 237.027 27.5125 237.027 37.443V392.368C237.027 402.299 240.967 411.822 247.981 418.844C254.995 425.866 264.507 429.811 274.426 429.811H411.331C421.249 429.811 430.762 425.866 437.776 418.844C444.789 411.822 448.73 402.299 448.73 392.368V148.19H451.089L451.09 102.138Z" fill="#3F3D56"/>
<path d="M412.84 9.7405H394.97C395.792 11.7579 396.106 13.9467 395.884 16.1142C395.662 18.2818 394.911 20.3614 393.697 22.1698C392.483 23.9783 390.844 25.4601 388.923 26.4846C387.003 27.5092 384.86 28.0451 382.683 28.045H304.253C302.077 28.0448 299.934 27.5089 298.014 26.4844C296.093 25.4599 294.454 23.9783 293.24 22.1701C292.026 20.3619 291.275 18.2826 291.053 16.1153C290.831 13.9481 291.145 11.7595 291.967 9.74227H275.273C267.866 9.74227 260.762 12.6884 255.524 17.9324C250.286 23.1765 247.343 30.289 247.343 37.7052V392.108C247.343 399.524 250.286 406.636 255.524 411.88C260.762 417.124 267.866 420.07 275.273 420.07H412.835C420.242 420.07 427.347 417.124 432.584 411.88C437.822 406.636 440.765 399.524 440.765 392.108V37.7034C440.765 30.2872 437.822 23.1747 432.584 17.9306C427.347 12.6866 420.242 9.74048 412.835 9.74048L412.84 9.7405Z" fill="white"/>
<path d="M344.293 400.265C352.763 400.265 359.63 393.391 359.63 384.91C359.63 376.43 352.763 369.555 344.293 369.555C335.823 369.555 328.956 376.43 328.956 384.91C328.956 393.391 335.823 400.265 344.293 400.265Z" fill="#E6E6E6"/>
<path d="M282.074 242.906C280.624 242.906 279.444 244.254 279.444 245.911C279.444 247.567 280.624 248.915 282.074 248.915H406.034C407.484 248.915 408.664 247.567 408.664 245.911C408.664 244.254 407.484 242.906 406.034 242.906H282.074Z" fill="#E6E6E6"/>
<path d="M282.074 313.776C280.624 313.776 279.444 315.124 279.444 316.781C279.444 318.437 280.624 319.786 282.074 319.786H406.034C407.484 319.786 408.664 318.437 408.664 316.781C408.664 315.124 407.484 313.776 406.034 313.776H282.074Z" fill="#E6E6E6"/>
<path d="M282.074 260.935C280.624 260.935 279.444 262.283 279.444 263.939C279.444 265.596 280.624 266.944 282.074 266.944H335.414C336.864 266.944 338.044 265.596 338.044 263.939C338.044 262.283 336.864 260.935 335.414 260.935H282.074Z" fill="#E6E6E6"/>
<path d="M282.074 278.12C280.624 278.12 279.444 279.468 279.444 281.124C279.444 282.781 280.624 284.129 282.074 284.129H406.034C407.484 284.129 408.664 282.781 408.664 281.124C408.664 279.468 407.484 278.12 406.034 278.12H282.074Z" fill="#E6E6E6"/>
<path d="M282.074 296.149C280.624 296.149 279.444 297.497 279.444 299.154C279.444 300.81 280.624 302.158 282.074 302.158H335.414C336.864 302.158 338.044 300.81 338.044 299.154C338.044 297.497 336.864 296.149 335.414 296.149H282.074Z" fill="#E6E6E6"/>
<path d="M305.475 106.085H382.64C383.493 106.086 384.31 106.425 384.913 107.029C385.516 107.632 385.855 108.45 385.856 109.304V189.763C385.855 190.616 385.516 191.435 384.913 192.038C384.31 192.641 383.493 192.981 382.64 192.982H305.475C304.623 192.981 303.806 192.641 303.203 192.038C302.6 191.435 302.261 190.616 302.26 189.763V109.304C302.261 108.45 302.6 107.632 303.203 107.029C303.806 106.425 304.623 106.086 305.475 106.085Z" fill="#FF006E"/>
<path d="M366.198 176.39C366.485 176.39 366.769 176.334 367.035 176.225C367.3 176.115 367.541 175.955 367.744 175.752C367.947 175.549 368.109 175.308 368.219 175.043C368.329 174.777 368.385 174.493 368.385 174.206C368.386 173.918 368.329 173.634 368.219 173.368C368.11 173.103 367.949 172.862 367.746 172.659C367.543 172.456 367.302 172.295 367.037 172.185C366.771 172.075 366.487 172.019 366.2 172.019H321.918C321.631 172.018 321.346 172.075 321.081 172.184C320.816 172.294 320.575 172.454 320.372 172.657C320.168 172.86 320.007 173.101 319.897 173.366C319.787 173.632 319.73 173.916 319.73 174.203C319.73 174.491 319.787 174.775 319.896 175.041C320.006 175.306 320.167 175.547 320.37 175.75C320.573 175.953 320.814 176.114 321.079 176.224C321.344 176.334 321.629 176.39 321.915 176.39H366.198Z" fill="white"/>
<path d="M366.198 163.514C366.777 163.514 367.332 163.284 367.742 162.874C368.151 162.464 368.381 161.908 368.381 161.328C368.381 160.749 368.151 160.193 367.742 159.783C367.332 159.373 366.777 159.143 366.198 159.143H321.918C321.339 159.143 320.783 159.373 320.374 159.782C319.964 160.192 319.734 160.748 319.734 161.327C319.733 161.907 319.963 162.463 320.372 162.873C320.781 163.283 321.337 163.514 321.915 163.514H366.198Z" fill="white"/>
<path d="M344.058 122.677C346.775 122.677 349.432 123.484 351.691 124.995C353.951 126.507 355.712 128.655 356.752 131.169C357.792 133.683 358.064 136.448 357.534 139.117C357.004 141.785 355.695 144.236 353.773 146.16C351.852 148.084 349.404 149.394 346.738 149.925C344.073 150.456 341.31 150.183 338.8 149.142C336.289 148.101 334.143 146.338 332.633 144.076C331.124 141.814 330.318 139.154 330.318 136.433C330.322 132.786 331.771 129.29 334.347 126.711C336.922 124.132 340.415 122.681 344.058 122.677Z" fill="white"/>
<path d="M168.746 262.201H127.955C127.116 262.2 126.312 261.866 125.718 261.272C125.125 260.678 124.791 259.873 124.79 259.033V241.43C124.79 235.174 127.272 229.174 131.691 224.751C136.109 220.327 142.102 217.842 148.35 217.842C154.599 217.842 160.591 220.327 165.01 224.751C169.428 229.174 171.91 235.174 171.91 241.43V259.033C171.91 259.873 171.576 260.678 170.982 261.272C170.389 261.866 169.585 262.2 168.746 262.201Z" fill="#2F2E41"/>
<path d="M168.011 252.142C172.586 243.762 169.51 233.254 161.139 228.673C152.768 224.091 142.273 227.171 137.697 235.552C133.121 243.933 136.198 254.44 144.569 259.022C152.939 263.603 163.435 260.523 168.011 252.142Z" fill="#FFB6B6"/>
<path d="M177.484 243.19H152.542L152.286 239.605L151.007 243.19H147.166L146.66 236.084L144.125 243.19H136.694V242.838C136.699 237.891 138.664 233.148 142.158 229.65C145.652 226.152 150.389 224.185 155.33 224.179H158.847C163.788 224.185 168.525 226.152 172.019 229.65C175.513 233.148 177.479 237.891 177.484 242.838V243.19Z" fill="#2F2E41"/>
<path d="M152.338 265.487C152.15 265.487 151.962 265.471 151.777 265.438L133.513 262.212V231.991H153.619L153.121 232.572C146.195 240.658 151.413 253.77 155.139 260.867C155.414 261.386 155.537 261.973 155.493 262.559C155.449 263.146 155.241 263.708 154.892 264.181C154.599 264.585 154.216 264.915 153.772 265.142C153.328 265.369 152.836 265.487 152.338 265.487Z" fill="#2F2E41"/>
<path d="M213.146 414.693L235.679 414.692H235.68C239.489 414.692 243.141 416.207 245.834 418.903C248.527 421.599 250.04 425.256 250.04 429.069V429.536L213.146 429.537L213.146 414.693Z" fill="#2F2E41"/>
<path d="M524.41 431H0.589888C0.43344 431 0.283399 430.938 0.172774 430.827C0.0621482 430.716 0 430.566 0 430.409C0 430.253 0.0621482 430.103 0.172774 429.992C0.283399 429.881 0.43344 429.819 0.589888 429.819H524.41C524.567 429.819 524.717 429.881 524.827 429.992C524.938 430.103 525 430.253 525 430.409C525 430.566 524.938 430.716 524.827 430.827C524.717 430.938 524.567 431 524.41 431Z" fill="#CACACA"/>
</g>
<defs>
<clipPath id="clip0_7_93">
<rect width="525" height="431" fill="white"/>
</clipPath>
</defs>
</svg>
